<?xml version="1.0" encoding="UTF-8"?>
<svg id="_圖層_1" data-name="圖層_1" xmlns="http://www.w3.org/2000/svg" version="1.1" viewBox="0 0 512 512">
  <!-- Generator: Adobe Illustrator 30.2.1, SVG Export Plug-In . SVG Version: 2.1.1 Build 1)  -->
  <defs>
    <style>
      .st0 {
        fill: #f0f0f0;
      }
    </style>
  </defs>
  <rect class="st0" x="-.35" y=".29" width="512" height="512"/>
  <path d="M149.32,435.52h173.82c18.41,0,35.68-4.9,50.57-13.46,1.42-.82,2.81-1.66,4.19-2.55,1.37-.88,2.73-1.79,4.05-2.74,1.33-.94,2.63-1.92,3.91-2.92,1.28-1.01,2.53-2.04,3.76-3.11,12.9-11.18,22.96-25.55,28.94-41.89.57-1.56,1.1-3.13,1.6-4.72.25-.8.49-1.59.71-2.4.46-1.61.87-3.23,1.25-4.87.19-.82.37-1.64.54-2.47,1.01-4.96,1.67-10.05,1.93-15.25.09-1.73.13-3.47.13-5.23h0c0-25.75-9.59-49.26-25.38-67.17h0c-3.38-3.83-7.04-7.4-10.95-10.69h0c-17.53-14.71-40.1-23.61-64.74-23.74-.35,0-.7.03-1.05.03h-135.46c-.23,0-.47-.01-.7-.02-11.75-.15-22.61-4.09-31.4-10.66-12.99-9.71-21.45-25.16-21.6-42.56-.26-29.8,24.8-54.17,54.6-54.17h133.66c29.7,0,54.75,24.3,54.6,53.99-.09,17.34-8.45,32.76-21.32,42.52,16.23,4.57,31.31,12.64,44.3,23.84,15.52-17.84,24.92-41.15,24.92-66.65h0c0-.88-.01-1.75-.03-2.62-.02-.87-.06-1.74-.1-2.61-.26-5.19-.92-10.29-1.93-15.25-.17-.83-.35-1.65-.54-2.47-.38-1.64-.8-3.26-1.25-4.87-.23-.8-.47-1.6-.71-2.4-.49-1.59-1.03-3.16-1.6-4.72-4.84-13.23-12.36-25.16-21.89-35.16-1.12-1.18-2.27-2.33-3.45-3.45-1.18-1.12-2.38-2.21-3.61-3.28-1.23-1.06-2.48-2.1-3.76-3.11s-2.58-1.98-3.91-2.92c-1.33-.94-2.68-1.86-4.05-2.74-1.37-.88-2.77-1.73-4.19-2.55-14.89-8.56-32.16-13.46-50.57-13.46h-135.46c-18.41,0-35.68,4.9-50.57,13.46-1.42.82-2.81,1.66-4.19,2.55-1.37.88-2.73,1.79-4.05,2.74-1.33.94-2.63,1.92-3.91,2.92s-2.53,2.04-3.76,3.11c-1.23,1.06-2.43,2.16-3.61,3.28-1.18,1.12-2.33,2.27-3.45,3.45-9.53,10-17.05,21.94-21.89,35.16-.57,1.56-1.1,3.13-1.6,4.72-.25.8-.49,1.59-.71,2.4-.46,1.61-.87,3.23-1.25,4.87-.19.82-.37,1.64-.54,2.47-1.01,4.96-1.67,10.05-1.93,15.25-.04.87-.08,1.73-.1,2.61,0,0,0,0,0,0-.02.87-.03,1.74-.03,2.61h0v212.53c0,24.48,19.85,44.33,44.33,44.33h3.57v-170.63c15.44,9.64,33.65,15.26,53.18,15.36.35,0,.7-.03,1.05-.03h135.46c.23,0,.47.01.7.02,11.75.15,22.61,4.09,31.4,10.66h0c13.11,9.8,21.6,25.44,21.6,43.03,0,29.61-24.09,53.7-53.7,53.7h-135.46c-10.68,0-29.99-3.15-38.36-8.55v56.44ZM86.09,333.92c0,1.75.04,3.5.13,5.23-.09-1.73-.13-3.47-.13-5.23Z"/>
</svg>