<?xml version="1.0" encoding="UTF-8"?>
<svg id="_圖層_1" data-name="圖層_1" xmlns="http://www.w3.org/2000/svg" version="1.1" viewBox="0 0 512 512">
  <!-- Generator: Adobe Illustrator 30.2.1, SVG Export Plug-In . SVG Version: 2.1.1 Build 1)  -->
  <defs>
    <style>
      .st0 {
        fill: #251e1c;
      }
    </style>
  </defs>
  <path class="st0" d="M104.48,512h248.28c26.3,0,50.96-6.99,72.23-19.23,2.03-1.16,4.02-2.38,5.98-3.64,1.96-1.26,3.89-2.56,5.79-3.91,1.9-1.35,3.76-2.74,5.59-4.18s3.62-2.92,5.37-4.44c18.43-15.96,32.8-36.5,41.34-59.83.81-2.22,1.57-4.47,2.28-6.74.35-1.14.69-2.28,1.02-3.43.65-2.3,1.25-4.61,1.79-6.95.27-1.17.53-2.35.77-3.53,1.45-7.09,2.38-14.36,2.76-21.78.13-2.47.19-4.96.19-7.47h0c0-36.78-13.69-70.36-36.25-95.94h0c-4.82-5.47-10.05-10.57-15.64-15.26h0c-25.04-21.01-57.27-33.72-92.47-33.9-.5,0-.99.04-1.5.04h-193.49c-.34,0-.67-.02-1-.03-16.79-.22-32.3-5.84-44.85-15.22-18.55-13.87-30.64-35.94-30.86-60.79-.37-42.56,35.43-77.38,77.99-77.38h190.92c42.42,0,78.21,34.7,77.98,77.12-.13,24.77-12.07,46.79-30.46,60.73,23.19,6.53,44.72,18.06,63.27,34.06,22.17-25.48,35.6-58.77,35.6-95.2h0c0-1.25-.02-2.5-.05-3.75-.03-1.24-.08-2.49-.14-3.72-.38-7.42-1.31-14.69-2.76-21.78-.24-1.18-.5-2.36-.77-3.53-.54-2.34-1.14-4.66-1.79-6.95-.33-1.15-.67-2.29-1.02-3.43-.71-2.27-1.47-4.52-2.28-6.74-6.92-18.89-17.65-35.94-31.27-50.22-1.6-1.68-3.24-3.32-4.92-4.92-1.68-1.6-3.4-3.16-5.15-4.68-1.76-1.52-3.55-3-5.37-4.44-1.83-1.44-3.69-2.83-5.59-4.18-1.9-1.35-3.83-2.65-5.79-3.91-1.96-1.26-3.96-2.47-5.98-3.64C402.98,6.99,378.32,0,352.02,0h-193.49c-26.3,0-50.96,6.99-72.23,19.23-2.03,1.16-4.02,2.38-5.98,3.64-1.96,1.26-3.89,2.56-5.79,3.91-1.9,1.35-3.76,2.74-5.59,4.18s-3.62,2.92-5.37,4.44c-1.76,1.52-3.47,3.08-5.15,4.68-1.68,1.6-3.32,3.24-4.92,4.92-13.62,14.28-24.35,31.33-31.27,50.22-.81,2.22-1.57,4.47-2.28,6.74-.35,1.14-.69,2.28-1.02,3.43-.65,2.3-1.25,4.61-1.79,6.95-.27,1.17-.53,2.35-.77,3.53-1.45,7.09-2.38,14.36-2.76,21.78-.06,1.24-.11,2.48-.14,3.72,0,0,0,0,0,.01-.03,1.24-.05,2.49-.05,3.73h0v303.57c0,34.97,28.35,63.31,63.31,63.31h5.09v-243.72c22.06,13.77,48.07,21.8,75.95,21.94.5,0,.99-.04,1.5-.04h193.49c.34,0,.67.02,1,.03,16.79.22,32.3,5.84,44.85,15.22h0c18.72,14,30.86,36.34,30.86,61.46,0,42.3-34.41,76.71-76.71,76.71h-193.49c-15.26,0-42.84-4.5-54.8-12.21v80.62ZM14.17,366.89c0,2.5.06,4.99.19,7.47-.13-2.47-.19-4.96-.19-7.47Z"/>
</svg>